<?xml version="1.0" encoding="UTF-8"?>
<!DOCTYPE svg PUBLIC "-//W3C//DTD SVG 1.1//EN" "http://www.w3.org/Graphics/SVG/1.1/DTD/svg11.dtd">
<svg xmlns="http://www.w3.org/2000/svg" version="1.1" width="512px" height="512px" style="shape-rendering:geometricPrecision; text-rendering:geometricPrecision; image-rendering:optimizeQuality; fill-rule:evenodd; clip-rule:evenodd" xmlns:xlink="http://www.w3.org/1999/xlink">
<g><path style="opacity:0.851" fill="#72d9cf" d="M 172.5,65.5 C 172.5,65.1667 172.5,64.8333 172.5,64.5C 209.167,64.5 245.833,64.5 282.5,64.5C 283.29,65.4013 284.29,66.0679 285.5,66.5C 286.167,66.5 286.5,66.8333 286.5,67.5C 263.586,65.607 240.586,64.9403 217.5,65.5C 202.5,65.5 187.5,65.5 172.5,65.5 Z"/></g>
<g><path style="opacity:0.212" fill="#293131" d="M 282.5,64.5 C 284.179,64.2852 285.179,64.9519 285.5,66.5C 284.29,66.0679 283.29,65.4013 282.5,64.5 Z"/></g>
<g><path style="opacity:1" fill="#87fcf3" d="M 217.5,65.5 C 240.586,64.9403 263.586,65.607 286.5,67.5C 287.818,71.2744 287.485,74.941 285.5,78.5C 283.328,80.8432 281.661,83.5099 280.5,86.5C 279.094,86.9731 278.427,87.9731 278.5,89.5C 277.094,89.9731 276.427,90.9731 276.5,92.5C 275.89,94.4341 274.89,96.1007 273.5,97.5C 271.75,98.6594 270.75,100.326 270.5,102.5C 270.5,103.167 270.167,103.5 269.5,103.5C 268.094,103.973 267.427,104.973 267.5,106.5C 267.672,107.492 267.338,108.158 266.5,108.5C 265.094,108.973 264.427,109.973 264.5,111.5C 263.094,111.973 262.427,112.973 262.5,114.5C 260.75,115.659 259.75,117.326 259.5,119.5C 258.094,119.973 257.427,120.973 257.5,122.5C 257.672,123.492 257.338,124.158 256.5,124.5C 256.745,121.135 256.078,117.968 254.5,115C 254.645,114.228 254.978,113.561 255.5,113C 253.58,111.878 251.58,111.044 249.5,110.5C 249.677,108.019 248.677,106.186 246.5,105C 246.833,104.667 247.167,104.333 247.5,104C 245.292,102.922 243.292,101.422 241.5,99.5C 240.537,96.9349 239.204,94.6016 237.5,92.5C 237.709,91.914 238.043,91.414 238.5,91C 235.781,89.4033 233.614,87.2366 232,84.5C 231.383,83.5509 231.549,82.7175 232.5,82C 231.551,81.3828 230.718,81.5494 230,82.5C 229.654,80.7818 229.154,79.1151 228.5,77.5C 228.709,76.914 229.043,76.414 229.5,76C 227.5,75 225.5,74 223.5,73C 223.833,72.6667 224.167,72.3333 224.5,72C 220.664,70.652 218.331,68.4853 217.5,65.5 Z"/></g>
<g><path style="opacity:0.776" fill="#424e4a" d="M 172.5,64.5 C 172.5,64.8333 172.5,65.1667 172.5,65.5C 170.589,66.075 168.922,67.075 167.5,68.5C 167.967,65.7026 169.633,64.3692 172.5,64.5 Z"/></g>
<g><path style="opacity:0.016" fill="#171b1b" d="M 167.5,68.5 C 167.008,70.8185 166.008,72.8185 164.5,74.5C 164.461,71.911 165.461,69.911 167.5,68.5 Z"/></g>
<g><path style="opacity:0.365" fill="#525252" d="M 422.5,72.5 C 425.228,72.1706 427.562,72.8372 429.5,74.5C 426.933,74.2785 424.599,73.6118 422.5,72.5 Z"/></g>
<g><path style="opacity:1" fill="#fdfdfd" d="M 297.5,72.5 C 339.167,72.5 380.833,72.5 422.5,72.5C 424.599,73.6118 426.933,74.2785 429.5,74.5C 431.147,76.3264 433.147,77.6597 435.5,78.5C 438.133,81.4702 440.8,84.4702 443.5,87.5C 444.938,91.8334 446.938,95.8334 449.5,99.5C 449.426,107.653 449.426,115.986 449.5,124.5C 448.275,125.152 447.608,126.319 447.5,128C 445.18,140.068 443.847,152.235 443.5,164.5C 441.864,170.603 440.864,176.936 440.5,183.5C 440.57,187.425 439.903,191.091 438.5,194.5C 436.179,201.089 433.845,207.756 431.5,214.5C 426.42,226.741 417.42,234.574 404.5,238C 410.12,238.362 414.787,240.528 418.5,244.5C 418.738,246.404 419.738,247.738 421.5,248.5C 421.427,250.027 422.094,251.027 423.5,251.5C 423.427,253.027 424.094,254.027 425.5,254.5C 428.237,257.983 429.903,261.983 430.5,266.5C 431.849,279.204 431.516,291.87 429.5,304.5C 429.802,307.059 429.468,309.393 428.5,311.5C 426.345,319.911 425.011,328.577 424.5,337.5C 424.802,340.059 424.468,342.393 423.5,344.5C 421.438,353.26 420.105,362.26 419.5,371.5C 417.654,389.506 409.32,403.673 394.5,414C 390.381,417.393 385.714,419.726 380.5,421C 295.999,421.832 211.666,421.666 127.5,420.5C 128.496,420.586 129.329,420.252 130,419.5C 131.421,417.595 132.588,415.595 133.5,413.5C 143.577,403.093 152.911,392.093 161.5,380.5C 163.914,379.089 165.581,377.089 166.5,374.5C 174.963,365.579 182.963,356.246 190.5,346.5C 191.757,343.573 193.757,341.239 196.5,339.5C 198.997,338.871 200.33,337.204 200.5,334.5C 200.5,333.833 200.833,333.5 201.5,333.5C 202.906,333.027 203.573,332.027 203.5,330.5C 204.167,329.167 205.167,328.167 206.5,327.5C 209.107,326.288 210.774,324.288 211.5,321.5C 211.328,320.508 211.662,319.842 212.5,319.5C 214.5,319.5 215.5,318.5 215.5,316.5C 217.817,312.854 220.484,309.52 223.5,306.5C 225.833,306.167 227.167,304.833 227.5,302.5C 227.328,301.508 227.662,300.842 228.5,300.5C 229.496,300.586 230.329,300.252 231,299.5C 232.75,297.266 234.25,294.932 235.5,292.5C 238.091,291.746 239.924,290.079 241,287.5C 241.464,288.094 241.631,288.761 241.5,289.5C 239.771,295.926 238.771,302.593 238.5,309.5C 238.159,318.621 237.159,327.621 235.5,336.5C 234.957,336.56 234.624,336.893 234.5,337.5C 246.333,337.833 258.167,338.167 270,338.5C 283.7,338.886 297.2,338.886 310.5,338.5C 312.38,338.771 313.713,338.104 314.5,336.5C 314.842,335.662 315.508,335.328 316.5,335.5C 318.833,335.167 320.167,333.833 320.5,331.5C 322.186,327.424 323.853,323.424 325.5,319.5C 328.246,310.143 329.08,300.476 328,290.5C 327.764,288.881 326.931,287.881 325.5,287.5C 325.715,285.821 325.048,284.821 323.5,284.5C 323.389,283.883 323.056,283.383 322.5,283C 319.576,282.012 316.576,281.346 313.5,281C 291.503,280.5 269.503,280.333 247.5,280.5C 248.075,278.589 249.075,276.922 250.5,275.5C 252.063,274.055 253.396,272.389 254.5,270.5C 259.956,264.119 264.956,258.119 269.5,252.5C 274.204,249.123 277.871,244.789 280.5,239.5C 283.152,235.518 286.152,231.851 289.5,228.5C 291.144,228.19 292.144,227.19 292.5,225.5C 294.183,224.147 295.516,222.48 296.5,220.5C 297.167,219.167 298.167,218.167 299.5,217.5C 301.547,215.45 303.214,213.117 304.5,210.5C 305.234,209.292 305.567,207.959 305.5,206.5C 311.176,206.666 316.843,206.499 322.5,206C 326.236,205.297 329.569,203.797 332.5,201.5C 333.906,201.027 334.573,200.027 334.5,198.5C 336.104,197.713 336.771,196.38 336.5,194.5C 337.662,186.674 338.995,179.008 340.5,171.5C 341.794,169.952 342.461,167.952 342.5,165.5C 342.461,163.048 341.794,161.048 340.5,159.5C 340.801,154.952 338.801,151.785 334.5,150C 308.169,149.5 281.835,149.333 255.5,149.5C 256.845,145.989 258.845,142.822 261.5,140C 261.043,139.586 260.709,139.086 260.5,138.5C 261.5,137.667 262.5,136.833 263.5,136C 262.288,134.893 262.621,134.393 264.5,134.5C 265.737,133.035 266.737,131.368 267.5,129.5C 268.401,128.71 269.068,127.71 269.5,126.5C 271.192,124.795 272.525,122.795 273.5,120.5C 273.945,117.058 275.612,114.391 278.5,112.5C 280.588,110.664 281.921,108.331 282.5,105.5C 282.328,104.508 282.662,103.842 283.5,103.5C 285.279,102.33 286.279,100.664 286.5,98.5C 288.048,98.1788 288.715,97.1788 288.5,95.5C 288.263,94.209 288.596,93.209 289.5,92.5C 290.833,92.5 291.5,91.8333 291.5,90.5C 291.5,89.8333 291.833,89.5 292.5,89.5C 294.745,88.7081 295.078,87.3747 293.5,85.5C 294.728,84.6935 295.728,83.6935 296.5,82.5C 298.924,81.1082 300.257,79.2748 300.5,77C 299.496,75.377 298.496,73.877 297.5,72.5 Z"/></g>
<g><path style="opacity:0.173" fill="#303534" d="M 286.5,67.5 C 287.748,68.3339 288.415,69.6672 288.5,71.5C 288.828,74.5005 287.828,76.8339 285.5,78.5C 287.485,74.941 287.818,71.2744 286.5,67.5 Z"/></g>
<g><path style="opacity:0.447" fill="#505050" d="M 429.5,74.5 C 432.198,74.8449 434.198,76.1782 435.5,78.5C 433.147,77.6597 431.147,76.3264 429.5,74.5 Z"/></g>
<g><path style="opacity:0.01" fill="#141c1c" d="M 297.5,72.5 C 298.496,73.877 299.496,75.377 300.5,77C 300.257,79.2748 298.924,81.1082 296.5,82.5C 297.385,79.0039 297.719,75.6706 297.5,72.5 Z"/></g>
<g><path style="opacity:0.463" fill="#1e2121" d="M 163.5,76.5 C 163.34,78.153 162.674,79.4863 161.5,80.5C 161.229,78.6203 161.896,77.287 163.5,76.5 Z"/></g>
<g><path style="opacity:0.008" fill="#1d2220" d="M 285.5,78.5 C 284.831,81.8489 283.164,84.5156 280.5,86.5C 281.661,83.5099 283.328,80.8432 285.5,78.5 Z"/></g>
<g><path style="opacity:0.486" fill="#1e2323" d="M 159.5,84.5 C 159.443,85.609 159.11,86.609 158.5,87.5C 158.5,88.1667 158.167,88.5 157.5,88.5C 157.229,86.6203 157.896,85.287 159.5,84.5 Z"/></g>
<g><path style="opacity:0.039" fill="#111616" d="M 280.5,86.5 C 280.573,88.0269 279.906,89.0269 278.5,89.5C 278.427,87.9731 279.094,86.9731 280.5,86.5 Z"/></g>
<g><path style="opacity:0.055" fill="#151919" d="M 293.5,85.5 C 295.078,87.3747 294.745,88.7081 292.5,89.5C 292.232,87.901 292.566,86.5676 293.5,85.5 Z"/></g>
<g><path style="opacity:0.004" fill="#131917" d="M 278.5,89.5 C 278.573,91.0269 277.906,92.0269 276.5,92.5C 276.427,90.9731 277.094,89.9731 278.5,89.5 Z"/></g>
<g><path style="opacity:0.094" fill="#0c1010" d="M 291.5,90.5 C 291.5,91.8333 290.833,92.5 289.5,92.5C 289.833,91.5 290.5,90.8333 291.5,90.5 Z"/></g>
<g><path style="opacity:0.02" fill="#171c1b" d="M 156.5,90.5 C 156.008,92.8185 155.008,94.8185 153.5,96.5C 153.461,93.911 154.461,91.911 156.5,90.5 Z"/></g>
<g><path style="opacity:0.925" fill="#606363" d="M 288.5,95.5 C 288.715,97.1788 288.048,98.1788 286.5,98.5C 286.932,97.2905 287.599,96.2905 288.5,95.5 Z"/></g>
<g><path style="opacity:0.475" fill="#1e2424" d="M 152.5,98.5 C 152.34,100.153 151.674,101.486 150.5,102.5C 150.229,100.62 150.896,99.287 152.5,98.5 Z"/></g>
<g><path style="opacity:0.149" fill="#171917" d="M 273.5,97.5 C 273.25,99.674 272.25,101.341 270.5,102.5C 270.75,100.326 271.75,98.6594 273.5,97.5 Z"/></g>
<g><path style="opacity:0.329" fill="#344846" d="M 286.5,98.5 C 286.279,100.664 285.279,102.33 283.5,103.5C 283.273,101.067 284.273,99.4006 286.5,98.5 Z"/></g>
<g><path style="opacity:0.063" fill="#191f1f" d="M 269.5,103.5 C 269.573,105.027 268.906,106.027 267.5,106.5C 267.427,104.973 268.094,103.973 269.5,103.5 Z"/></g>
<g><path style="opacity:1" fill="#7cfdf3" d="M 172.5,65.5 C 187.5,65.5 202.5,65.5 217.5,65.5C 218.331,68.4853 220.664,70.652 224.5,72C 224.167,72.3333 223.833,72.6667 223.5,73C 225.5,74 227.5,75 229.5,76C 229.043,76.414 228.709,76.914 228.5,77.5C 229.154,79.1151 229.654,80.7818 230,82.5C 230.718,81.5494 231.551,81.3828 232.5,82C 231.549,82.7175 231.383,83.5509 232,84.5C 233.614,87.2366 235.781,89.4033 238.5,91C 238.043,91.414 237.709,91.914 237.5,92.5C 239.204,94.6016 240.537,96.9349 241.5,99.5C 243.292,101.422 245.292,102.922 247.5,104C 247.167,104.333 246.833,104.667 246.5,105C 248.677,106.186 249.677,108.019 249.5,110.5C 251.58,111.044 253.58,111.878 255.5,113C 254.978,113.561 254.645,114.228 254.5,115C 256.078,117.968 256.745,121.135 256.5,124.5C 256.068,125.71 255.401,126.71 254.5,127.5C 252.75,128.659 251.75,130.326 251.5,132.5C 250.525,134.795 249.192,136.795 247.5,138.5C 246.094,138.973 245.427,139.973 245.5,141.5C 244.094,141.973 243.427,142.973 243.5,144.5C 241.75,145.659 240.75,147.326 240.5,149.5C 238.806,150.527 237.473,151.861 236.5,153.5C 236.286,151.856 236.62,150.356 237.5,149C 236.049,149.263 234.716,149.096 233.5,148.5C 232.62,146.571 231.62,144.737 230.5,143C 230.645,142.228 230.978,141.561 231.5,141C 230.167,141.333 228.833,141.667 227.5,142C 228.167,141 228.833,140 229.5,139C 227.366,136.114 225.032,133.447 222.5,131C 221.551,130.383 220.718,130.549 220,131.5C 219.5,129.667 218.333,128.5 216.5,128C 217.112,126.697 217.446,125.53 217.5,124.5C 218.971,125.381 219.804,126.714 220,128.5C 221.487,127.747 221.654,126.914 220.5,126C 223.059,124.677 223.725,122.843 222.5,120.5C 220.587,121.373 218.753,122.373 217,123.5C 216.544,122.256 217.044,121.423 218.5,121C 217.167,120.333 215.833,119.667 214.5,119C 216.707,116.016 216.207,115.85 213,118.5C 212.5,118 212,117.5 211.5,117C 212.623,115.956 213.956,115.29 215.5,115C 213.888,114.28 212.388,114.446 211,115.5C 210.5,115 210,114.5 209.5,114C 209.057,112.482 209.724,111.315 211.5,110.5C 210.273,109.41 209.44,108.076 209,106.5C 207.475,106.112 205.808,106.112 204,106.5C 202.152,104.982 200.652,103.149 199.5,101C 201.657,99.9153 201.824,98.7487 200,97.5C 199.667,98.1667 199.333,98.8333 199,99.5C 197.159,96.7403 195.159,94.0736 193,91.5C 189.89,92.6734 189.723,92.1734 192.5,90C 191.833,88.6667 190.833,87.6667 189.5,87C 191.901,86.195 191.734,85.3617 189,84.5C 188.035,86.2603 186.868,86.5937 185.5,85.5C 188.619,84.3064 188.952,82.8064 186.5,81C 190.567,78.0159 190.234,76.0159 185.5,75C 186.328,74.0853 187.328,73.4186 188.5,73C 187.5,72.3333 186.5,72.3333 185.5,73C 183.945,76.916 181.612,77.2493 178.5,74C 180.615,73.5756 181.448,72.4089 181,70.5C 180.667,70.8333 180.333,71.1667 180,71.5C 178.937,70.5622 177.77,69.5622 176.5,68.5C 175.667,69.5 174.833,70.5 174,71.5C 173.383,70.5509 173.549,69.7175 174.5,69C 172.48,66.9481 170.813,67.1147 169.5,69.5C 170.128,71.2581 171.128,72.7581 172.5,74C 171.034,74.6355 169.7,75.4688 168.5,76.5C 167.5,75.1667 166.5,75.1667 165.5,76.5C 165.39,78.0982 165.057,79.7648 164.5,81.5C 162.024,83.2074 160.024,85.2074 158.5,87.5C 159.11,86.609 159.443,85.609 159.5,84.5C 159.66,82.847 160.326,81.5137 161.5,80.5C 162.674,79.4863 163.34,78.153 163.5,76.5C 163.328,75.5084 163.662,74.8417 164.5,74.5C 166.008,72.8185 167.008,70.8185 167.5,68.5C 168.922,67.075 170.589,66.075 172.5,65.5 Z"/></g>
<g><path style="opacity:0.486" fill="#1f2423" d="M 148.5,106.5 C 148.34,108.153 147.674,109.486 146.5,110.5C 146.229,108.62 146.896,107.287 148.5,106.5 Z"/></g>
<g><path style="opacity:1" fill="#6bfdf1" d="M 236.5,153.5 C 236.167,154.833 235.833,156.167 235.5,157.5C 234.094,157.973 233.427,158.973 233.5,160.5C 231.273,161.401 230.273,163.067 230.5,165.5C 230.068,166.71 229.401,167.71 228.5,168.5C 226.75,169.659 225.75,171.326 225.5,173.5C 225.5,174.167 225.167,174.5 224.5,174.5C 223.094,174.973 222.427,175.973 222.5,177.5C 222.672,178.492 222.338,179.158 221.5,179.5C 220.094,179.973 219.427,180.973 219.5,182.5C 217.05,184.629 215.383,187.296 214.5,190.5C 213.094,190.973 212.427,191.973 212.5,193.5C 212.573,195.027 211.906,196.027 210.5,196.5C 209.522,196.811 208.855,197.478 208.5,198.5C 235.825,199.5 263.159,199.833 290.5,199.5C 292.017,199.511 293.184,200.177 294,201.5C 294.801,204.367 294.634,207.034 293.5,209.5C 292.448,209.351 291.448,209.517 290.5,210C 290.833,210.333 291.167,210.667 291.5,211C 289.137,211.589 288.137,213.089 288.5,215.5C 287.178,215.67 286.011,215.337 285,214.5C 284.5,215 284,215.5 283.5,216C 284.38,217.356 284.714,218.856 284.5,220.5C 283.5,220.5 282.5,220.5 281.5,220.5C 281.5,221.833 281.5,223.167 281.5,224.5C 281.5,225.167 281.167,225.5 280.5,225.5C 279.094,225.973 278.427,226.973 278.5,228.5C 276.545,230.826 274.545,233.159 272.5,235.5C 270.571,235.231 268.905,235.731 267.5,237C 268.416,237.278 269.082,237.778 269.5,238.5C 269.5,239.167 269.167,239.5 268.5,239.5C 267.292,240.234 265.959,240.567 264.5,240.5C 264.5,241.833 264.5,243.167 264.5,244.5C 262.738,245.262 261.738,246.596 261.5,248.5C 261.5,249.167 261.167,249.5 260.5,249.5C 259.5,249.833 258.833,250.5 258.5,251.5C 255.179,256.152 251.513,260.485 247.5,264.5C 244.09,264.384 242.756,266.05 243.5,269.5C 242.5,269.833 241.833,270.5 241.5,271.5C 240.833,272.5 240.167,273.5 239.5,274.5C 239.167,274.5 238.833,274.5 238.5,274.5C 237.014,269.33 234.681,264.163 231.5,259C 228.293,258.428 226.626,256.595 226.5,253.5C 227.552,253.649 228.552,253.483 229.5,253C 227.167,252.667 224.833,252.333 222.5,252C 223.765,250.663 224.265,249.163 224,247.5C 223.667,247.833 223.333,248.167 223,248.5C 222.065,245.898 220.232,244.398 217.5,244C 218.196,242.512 217.862,241.012 216.5,239.5C 215.575,238.359 214.741,238.359 214,239.5C 211.904,238.285 212.071,237.451 214.5,237C 212.546,234.584 210.213,232.584 207.5,231C 207.888,229.192 207.888,227.525 207.5,226C 206.328,225.581 205.328,224.915 204.5,224C 205.711,223.107 205.711,222.274 204.5,221.5C 202.162,223.011 201.496,222.677 202.5,220.5C 201.164,218.76 199.83,217.093 198.5,215.5C 197.571,214.311 197.238,212.978 197.5,211.5C 196.178,211.33 195.011,211.663 194,212.5C 193.316,211.216 193.483,210.049 194.5,209C 192.699,208.683 192.366,208.016 193.5,207C 190.738,204.392 188.905,201.225 188,197.5C 187.667,197.833 187.333,198.167 187,198.5C 185.274,196.772 183.941,194.772 183,192.5C 182.667,192.833 182.333,193.167 182,193.5C 180.877,190.751 179.377,188.251 177.5,186C 178.167,185.667 178.833,185.333 179.5,185C 177.532,183.456 175.365,182.289 173,181.5C 172.383,180.551 172.549,179.718 173.5,179C 170.833,176.333 168.167,173.667 165.5,171C 166.167,170.667 166.833,170.333 167.5,170C 165.301,167.632 162.968,165.466 160.5,163.5C 160.833,162.833 161.167,162.167 161.5,161.5C 159.405,159.435 157.572,157.102 156,154.5C 155.282,155.451 154.449,155.617 153.5,155C 155.007,154.163 155.507,152.996 155,151.5C 153.989,152.337 152.822,152.67 151.5,152.5C 151.005,149.511 150.505,146.844 150,144.5C 148.853,143.542 147.853,143.875 147,145.5C 144.833,144 145,142.833 147.5,142C 143.898,141.365 143.232,140.032 145.5,138C 144.234,137.691 143.067,137.191 142,136.5C 141.667,136.833 141.333,137.167 141,137.5C 139.534,132.649 137.367,132.315 134.5,136.5C 134.5,135.833 134.5,135.167 134.5,134.5C 134.328,133.508 134.662,132.842 135.5,132.5C 136.674,131.486 137.34,130.153 137.5,128.5C 137.66,126.847 138.326,125.514 139.5,124.5C 140.674,123.486 141.34,122.153 141.5,120.5C 141.328,119.508 141.662,118.842 142.5,118.5C 144.008,116.819 145.008,114.819 145.5,112.5C 145.328,111.508 145.662,110.842 146.5,110.5C 147.674,109.486 148.34,108.153 148.5,106.5C 148.66,104.847 149.326,103.514 150.5,102.5C 151.674,101.486 152.34,100.153 152.5,98.5C 152.328,97.5084 152.662,96.8417 153.5,96.5C 155.008,94.8185 156.008,92.8185 156.5,90.5C 156.328,89.5084 156.662,88.8417 157.5,88.5C 158.167,88.5 158.5,88.1667 158.5,87.5C 160.024,85.2074 162.024,83.2074 164.5,81.5C 165.057,79.7648 165.39,78.0982 165.5,76.5C 166.5,75.1667 167.5,75.1667 168.5,76.5C 169.7,75.4688 171.034,74.6355 172.5,74C 171.128,72.7581 170.128,71.2581 169.5,69.5C 170.813,67.1147 172.48,66.9481 174.5,69C 173.549,69.7175 173.383,70.5509 174,71.5C 174.833,70.5 175.667,69.5 176.5,68.5C 177.77,69.5622 178.937,70.5622 180,71.5C 180.333,71.1667 180.667,70.8333 181,70.5C 181.448,72.4089 180.615,73.5756 178.5,74C 181.612,77.2493 183.945,76.916 185.5,73C 186.5,72.3333 187.5,72.3333 188.5,73C 187.328,73.4186 186.328,74.0853 185.5,75C 190.234,76.0159 190.567,78.0159 186.5,81C 188.952,82.8064 188.619,84.3064 185.5,85.5C 186.868,86.5937 188.035,86.2603 189,84.5C 191.734,85.3617 191.901,86.195 189.5,87C 190.833,87.6667 191.833,88.6667 192.5,90C 189.723,92.1734 189.89,92.6734 193,91.5C 195.159,94.0736 197.159,96.7403 199,99.5C 199.333,98.8333 199.667,98.1667 200,97.5C 201.824,98.7487 201.657,99.9153 199.5,101C 200.652,103.149 202.152,104.982 204,106.5C 205.808,106.112 207.475,106.112 209,106.5C 209.44,108.076 210.273,109.41 211.5,110.5C 209.724,111.315 209.057,112.482 209.5,114C 210,114.5 210.5,115 211,115.5C 212.388,114.446 213.888,114.28 215.5,115C 213.956,115.29 212.623,115.956 211.5,117C 212,117.5 212.5,118 213,118.5C 216.207,115.85 216.707,116.016 214.5,119C 215.833,119.667 217.167,120.333 218.5,121C 217.044,121.423 216.544,122.256 217,123.5C 218.753,122.373 220.587,121.373 222.5,120.5C 223.725,122.843 223.059,124.677 220.5,126C 221.654,126.914 221.487,127.747 220,128.5C 219.804,126.714 218.971,125.381 217.5,124.5C 217.446,125.53 217.112,126.697 216.5,128C 218.333,128.5 219.5,129.667 220,131.5C 220.718,130.549 221.551,130.383 222.5,131C 225.032,133.447 227.366,136.114 229.5,139C 228.833,140 228.167,141 227.5,142C 228.833,141.667 230.167,141.333 231.5,141C 230.978,141.561 230.645,142.228 230.5,143C 231.62,144.737 232.62,146.571 233.5,148.5C 234.716,149.096 236.049,149.263 237.5,149C 236.62,150.356 236.286,151.856 236.5,153.5 Z"/></g>
<g><path style="opacity:0.004" fill="#202725" d="M 266.5,108.5 C 266.573,110.027 265.906,111.027 264.5,111.5C 264.427,109.973 265.094,108.973 266.5,108.5 Z"/></g>
<g><path style="opacity:0.635" fill="#4f605e" d="M 282.5,105.5 C 281.921,108.331 280.588,110.664 278.5,112.5C 278.414,109.697 279.747,107.363 282.5,105.5 Z"/></g>
<g><path style="opacity:0.004" fill="#192120" d="M 264.5,111.5 C 264.573,113.027 263.906,114.027 262.5,114.5C 262.427,112.973 263.094,111.973 264.5,111.5 Z"/></g>
<g><path style="opacity:0.086" fill="#191d1d" d="M 145.5,112.5 C 145.008,114.819 144.008,116.819 142.5,118.5C 142.461,115.911 143.461,113.911 145.5,112.5 Z"/></g>
<g><path style="opacity:0.169" fill="#1b201f" d="M 262.5,114.5 C 262.25,116.674 261.25,118.341 259.5,119.5C 259.75,117.326 260.75,115.659 262.5,114.5 Z"/></g>
<g><path style="opacity:0.004" fill="#131918" d="M 259.5,119.5 C 259.573,121.027 258.906,122.027 257.5,122.5C 257.427,120.973 258.094,119.973 259.5,119.5 Z"/></g>
<g><path style="opacity:0.482" fill="#1f2625" d="M 141.5,120.5 C 141.34,122.153 140.674,123.486 139.5,124.5C 139.229,122.62 139.896,121.287 141.5,120.5 Z"/></g>
<g><path style="opacity:0.376" fill="#353938" d="M 273.5,120.5 C 272.525,122.795 271.192,124.795 269.5,126.5C 269.684,123.663 271.018,121.663 273.5,120.5 Z"/></g>
<g><path style="opacity:0.184" fill="#2d3231" d="M 269.5,126.5 C 269.068,127.71 268.401,128.71 267.5,129.5C 267.285,127.821 267.952,126.821 269.5,126.5 Z"/></g>
<g><path style="opacity:0.498" fill="#1e2524" d="M 137.5,128.5 C 137.34,130.153 136.674,131.486 135.5,132.5C 135.229,130.62 135.896,129.287 137.5,128.5 Z"/></g>
<g><path style="opacity:0.239" fill="#1c1e1d" d="M 254.5,127.5 C 254.25,129.674 253.25,131.341 251.5,132.5C 251.75,130.326 252.75,128.659 254.5,127.5 Z"/></g>
<g><path style="opacity:0.102" fill="#242b2a" d="M 267.5,129.5 C 266.737,131.368 265.737,133.035 264.5,134.5C 264.259,131.966 265.259,130.3 267.5,129.5 Z"/></g>
<g><path style="opacity:0.094" fill="#191e1d" d="M 134.5,134.5 C 134.5,135.167 134.5,135.833 134.5,136.5C 133.5,137.833 132.5,139.167 131.5,140.5C 131.461,137.911 132.461,135.911 134.5,134.5 Z"/></g>
<g><path style="opacity:0.169" fill="#20221f" d="M 247.5,138.5 C 247.573,140.027 246.906,141.027 245.5,141.5C 245.427,139.973 246.094,138.973 247.5,138.5 Z"/></g>
<g><path style="opacity:0.004" fill="#192121" d="M 245.5,141.5 C 245.573,143.027 244.906,144.027 243.5,144.5C 243.427,142.973 244.094,141.973 245.5,141.5 Z"/></g>
<g><path style="opacity:0.494" fill="#202726" d="M 130.5,142.5 C 130.34,144.153 129.674,145.486 128.5,146.5C 128.229,144.62 128.896,143.287 130.5,142.5 Z"/></g>
<g><path style="opacity:0.263" fill="#1f2423" d="M 243.5,144.5 C 243.25,146.674 242.25,148.341 240.5,149.5C 240.75,147.326 241.75,145.659 243.5,144.5 Z"/></g>
<g><path style="opacity:0.757" fill="#848484" d="M 449.5,124.5 C 447.058,137.813 445.058,151.146 443.5,164.5C 443.847,152.235 445.18,140.068 447.5,128C 447.608,126.319 448.275,125.152 449.5,124.5 Z"/></g>
<g><path style="opacity:0.122" fill="#222222" d="M 255.5,149.5 C 281.835,149.333 308.169,149.5 334.5,150C 338.801,151.785 340.801,154.952 340.5,159.5C 339.49,155.684 337.157,152.851 333.5,151C 307.33,150.832 281.33,150.332 255.5,149.5 Z"/></g>
<g><path style="opacity:0.502" fill="#212625" d="M 126.5,150.5 C 126.34,152.153 125.674,153.486 124.5,154.5C 124.229,152.62 124.896,151.287 126.5,150.5 Z"/></g>
<g><path style="opacity:1" fill="#5cfef0" d="M 238.5,274.5 C 238.167,275.167 237.833,275.833 237.5,276.5C 236.5,276.5 235.5,276.5 234.5,276.5C 234.5,277.5 234.5,278.5 234.5,279.5C 233.5,279.5 232.5,279.5 231.5,279.5C 231.5,280.833 231.5,282.167 231.5,283.5C 229.738,284.262 228.738,285.596 228.5,287.5C 228.5,288.167 228.167,288.5 227.5,288.5C 225.413,289.585 224.08,291.251 223.5,293.5C 223.5,294.167 223.167,294.5 222.5,294.5C 220.738,295.262 219.738,296.596 219.5,298.5C 219.5,299.167 219.167,299.5 218.5,299.5C 217.292,300.234 215.959,300.567 214.5,300.5C 214.5,301.5 214.5,302.5 214.5,303.5C 214.167,303.5 213.833,303.5 213.5,303.5C 211.246,302.307 210.58,300.64 211.5,298.5C 210.273,297.41 209.44,296.076 209,294.5C 208.549,296.929 207.715,297.096 206.5,295C 206.835,293.497 206.835,292.164 206.5,291C 202.755,289.77 201.088,287.437 201.5,284C 198.57,281.88 196.737,279.047 196,275.5C 195.086,276.654 194.253,276.487 193.5,275C 194.167,274.667 194.833,274.333 195.5,274C 194.376,273.751 193.376,273.251 192.5,272.5C 189.661,269.177 187.494,265.51 186,261.5C 184.921,259.606 183.587,259.273 182,260.5C 182.617,258.905 182.284,257.572 181,256.5C 180.577,257.956 179.744,258.456 178.5,258C 179.791,255.91 179.124,254.576 176.5,254C 177.167,253.333 177.833,252.667 178.5,252C 176.998,251.417 175.665,250.584 174.5,249.5C 175.025,248.808 175.692,248.308 176.5,248C 175,246.885 173.333,246.052 171.5,245.5C 169.691,239.883 166.357,235.716 161.5,233C 161.957,232.586 162.291,232.086 162.5,231.5C 160.887,230.573 159.221,229.739 157.5,229C 158.308,228.692 158.975,228.192 159.5,227.5C 157.656,225.157 155.656,222.99 153.5,221C 154.517,219.951 154.684,218.784 154,217.5C 153.667,218.167 153.333,218.833 153,219.5C 151.725,217.283 150.725,214.949 150,212.5C 149.667,213.5 149.333,214.5 149,215.5C 148.651,210.815 146.151,207.982 141.5,207C 142.308,206.692 142.975,206.192 143.5,205.5C 142.738,205.089 141.738,204.923 140.5,205C 140.944,203.467 141.277,201.967 141.5,200.5C 140.47,200.446 139.303,200.112 138,199.5C 136.798,197.447 136.464,195.447 137,193.5C 136.086,194.654 135.253,194.487 134.5,193C 135.673,189.89 135.173,189.723 133,192.5C 132.558,190.321 131.558,189.655 130,190.5C 129.405,189.101 129.572,187.768 130.5,186.5C 128.8,183.961 127.3,181.295 126,178.5C 124.989,179.337 123.822,179.67 122.5,179.5C 122.5,177.833 122.5,176.167 122.5,174.5C 120.263,173.551 117.929,172.884 115.5,172.5C 115.66,170.847 116.326,169.514 117.5,168.5C 118.674,167.486 119.34,166.153 119.5,164.5C 119.328,163.508 119.662,162.842 120.5,162.5C 122.008,160.819 123.008,158.819 123.5,156.5C 123.328,155.508 123.662,154.842 124.5,154.5C 125.674,153.486 126.34,152.153 126.5,150.5C 126.66,148.847 127.326,147.514 128.5,146.5C 129.674,145.486 130.34,144.153 130.5,142.5C 130.328,141.508 130.662,140.842 131.5,140.5C 132.5,139.167 133.5,137.833 134.5,136.5C 137.367,132.315 139.534,132.649 141,137.5C 141.333,137.167 141.667,136.833 142,136.5C 143.067,137.191 144.234,137.691 145.5,138C 143.232,140.032 143.898,141.365 147.5,142C 145,142.833 144.833,144 147,145.5C 147.853,143.875 148.853,143.542 150,144.5C 150.505,146.844 151.005,149.511 151.5,152.5C 152.822,152.67 153.989,152.337 155,151.5C 155.507,152.996 155.007,154.163 153.5,155C 154.449,155.617 155.282,155.451 156,154.5C 157.572,157.102 159.405,159.435 161.5,161.5C 161.167,162.167 160.833,162.833 160.5,163.5C 162.968,165.466 165.301,167.632 167.5,170C 166.833,170.333 166.167,170.667 165.5,171C 168.167,173.667 170.833,176.333 173.5,179C 172.549,179.718 172.383,180.551 173,181.5C 175.365,182.289 177.532,183.456 179.5,185C 178.833,185.333 178.167,185.667 177.5,186C 179.377,188.251 180.877,190.751 182,193.5C 182.333,193.167 182.667,192.833 183,192.5C 183.941,194.772 185.274,196.772 187,198.5C 187.333,198.167 187.667,197.833 188,197.5C 188.905,201.225 190.738,204.392 193.5,207C 192.366,208.016 192.699,208.683 194.5,209C 193.483,210.049 193.316,211.216 194,212.5C 195.011,211.663 196.178,211.33 197.5,211.5C 197.238,212.978 197.571,214.311 198.5,215.5C 199.83,217.093 201.164,218.76 202.5,220.5C 201.496,222.677 202.162,223.011 204.5,221.5C 205.711,222.274 205.711,223.107 204.5,224C 205.328,224.915 206.328,225.581 207.5,226C 207.888,227.525 207.888,229.192 207.5,231C 210.213,232.584 212.546,234.584 214.5,237C 212.071,237.451 211.904,238.285 214,239.5C 214.741,238.359 215.575,238.359 216.5,239.5C 217.862,241.012 218.196,242.512 217.5,244C 220.232,244.398 222.065,245.898 223,248.5C 223.333,248.167 223.667,247.833 224,247.5C 224.265,249.163 223.765,250.663 222.5,252C 224.833,252.333 227.167,252.667 229.5,253C 228.552,253.483 227.552,253.649 226.5,253.5C 226.626,256.595 228.293,258.428 231.5,259C 234.681,264.163 237.014,269.33 238.5,274.5 Z"/></g>
<g><path style="opacity:0.122" fill="#272e2d" d="M 240.5,149.5 C 239.331,152.511 237.664,155.178 235.5,157.5C 235.833,156.167 236.167,154.833 236.5,153.5C 237.473,151.861 238.806,150.527 240.5,149.5 Z"/></g>
<g><path style="opacity:0.106" fill="#191e1d" d="M 123.5,156.5 C 123.008,158.819 122.008,160.819 120.5,162.5C 120.461,159.911 121.461,157.911 123.5,156.5 Z"/></g>
<g><path style="opacity:0.02" fill="#111716" d="M 235.5,157.5 C 235.573,159.027 234.906,160.027 233.5,160.5C 233.427,158.973 234.094,157.973 235.5,157.5 Z"/></g>
<g><path style="opacity:0.004" fill="#192120" d="M 233.5,160.5 C 232.89,162.434 231.89,164.101 230.5,165.5C 230.273,163.067 231.273,161.401 233.5,160.5 Z"/></g>
<g><path style="opacity:0.599" fill="#646464" d="M 340.5,159.5 C 341.794,161.048 342.461,163.048 342.5,165.5C 342.461,167.952 341.794,169.952 340.5,171.5C 340.5,167.5 340.5,163.5 340.5,159.5 Z"/></g>
<g><path style="opacity:0.026" fill="#101010" d="M 443.5,164.5 C 443.322,171.093 442.322,177.426 440.5,183.5C 440.864,176.936 441.864,170.603 443.5,164.5 Z"/></g>
<g><path style="opacity:0.075" fill="#1c2120" d="M 119.5,164.5 C 119.34,166.153 118.674,167.486 117.5,168.5C 117.229,166.62 117.896,165.287 119.5,164.5 Z"/></g>
<g><path style="opacity:0.227" fill="#1c1e1d" d="M 228.5,168.5 C 228.25,170.674 227.25,172.341 225.5,173.5C 225.75,171.326 226.75,169.659 228.5,168.5 Z"/></g>
<g><path style="opacity:0.502" fill="#202725" d="M 115.5,172.5 C 115.34,174.153 114.674,175.486 113.5,176.5C 113.229,174.62 113.896,173.287 115.5,172.5 Z"/></g>
<g><path style="opacity:0.078" fill="#161f1e" d="M 224.5,174.5 C 224.573,176.027 223.906,177.027 222.5,177.5C 222.427,175.973 223.094,174.973 224.5,174.5 Z"/></g>
<g><path style="opacity:0.122" fill="#19201d" d="M 112.5,178.5 C 112.008,180.819 111.008,182.819 109.5,184.5C 109.461,181.911 110.461,179.911 112.5,178.5 Z"/></g>
<g><path style="opacity:0.176" fill="#202c27" d="M 221.5,179.5 C 221.573,181.027 220.906,182.027 219.5,182.5C 219.427,180.973 220.094,179.973 221.5,179.5 Z"/></g>
<g><path style="opacity:0.086" fill="#1b2221" d="M 108.5,186.5 C 108.34,188.153 107.674,189.486 106.5,190.5C 106.229,188.62 106.896,187.287 108.5,186.5 Z"/></g>
<g><path style="opacity:0.004" fill="#1b2120" d="M 219.5,182.5 C 218.617,185.704 216.95,188.371 214.5,190.5C 215.383,187.296 217.05,184.629 219.5,182.5 Z"/></g>
<g><path style="opacity:1" fill="#4efdef" d="M 115.5,172.5 C 117.929,172.884 120.263,173.551 122.5,174.5C 122.5,176.167 122.5,177.833 122.5,179.5C 123.822,179.67 124.989,179.337 126,178.5C 127.3,181.295 128.8,183.961 130.5,186.5C 129.572,187.768 129.405,189.101 130,190.5C 131.558,189.655 132.558,190.321 133,192.5C 135.173,189.723 135.673,189.89 134.5,193C 135.253,194.487 136.086,194.654 137,193.5C 136.464,195.447 136.798,197.447 138,199.5C 139.303,200.112 140.47,200.446 141.5,200.5C 141.277,201.967 140.944,203.467 140.5,205C 141.738,204.923 142.738,205.089 143.5,205.5C 142.975,206.192 142.308,206.692 141.5,207C 146.151,207.982 148.651,210.815 149,215.5C 149.333,214.5 149.667,213.5 150,212.5C 150.725,214.949 151.725,217.283 153,219.5C 153.333,218.833 153.667,218.167 154,217.5C 154.684,218.784 154.517,219.951 153.5,221C 155.656,222.99 157.656,225.157 159.5,227.5C 158.975,228.192 158.308,228.692 157.5,229C 159.221,229.739 160.887,230.573 162.5,231.5C 162.291,232.086 161.957,232.586 161.5,233C 166.357,235.716 169.691,239.883 171.5,245.5C 173.333,246.052 175,246.885 176.5,248C 175.692,248.308 175.025,248.808 174.5,249.5C 175.665,250.584 176.998,251.417 178.5,252C 177.833,252.667 177.167,253.333 176.5,254C 179.124,254.576 179.791,255.91 178.5,258C 179.744,258.456 180.577,257.956 181,256.5C 182.284,257.572 182.617,258.905 182,260.5C 183.587,259.273 184.921,259.606 186,261.5C 187.494,265.51 189.661,269.177 192.5,272.5C 193.376,273.251 194.376,273.751 195.5,274C 194.833,274.333 194.167,274.667 193.5,275C 194.253,276.487 195.086,276.654 196,275.5C 196.737,279.047 198.57,281.88 201.5,284C 201.088,287.437 202.755,289.77 206.5,291C 206.835,292.164 206.835,293.497 206.5,295C 207.715,297.096 208.549,296.929 209,294.5C 209.44,296.076 210.273,297.41 211.5,298.5C 210.58,300.64 211.246,302.307 213.5,303.5C 213.443,304.609 213.11,305.609 212.5,306.5C 211.833,307.833 210.833,308.833 209.5,309.5C 208.094,309.973 207.427,310.973 207.5,312.5C 207.167,313.5 206.5,314.167 205.5,314.5C 204.094,314.973 203.427,315.973 203.5,317.5C 203.167,318.5 202.5,319.167 201.5,319.5C 199.738,320.262 198.738,321.596 198.5,323.5C 196.086,324.911 194.419,326.911 193.5,329.5C 192.5,331.167 191.167,332.5 189.5,333.5C 187.738,334.262 186.738,335.596 186.5,337.5C 186.5,338.167 186.167,338.5 185.5,338.5C 185.5,336.833 185.5,335.167 185.5,333.5C 184.5,333.5 183.5,333.5 182.5,333.5C 182.439,330.95 181.106,329.45 178.5,329C 178.833,328.667 179.167,328.333 179.5,328C 178.36,326.027 177.027,324.193 175.5,322.5C 175.709,321.914 176.043,321.414 176.5,321C 172.345,320.666 171.011,318.666 172.5,315C 171.107,313.829 170.273,312.329 170,310.5C 168.751,312.992 167.584,312.825 166.5,310C 167.167,309.333 167.833,308.667 168.5,308C 166.667,308.167 164.833,308.333 163,308.5C 162.691,307.234 162.191,306.067 161.5,305C 162.167,304.667 162.833,304.333 163.5,304C 162.216,303.316 161.049,303.483 160,304.5C 159.405,303.101 159.572,301.768 160.5,300.5C 158.615,299.803 158.282,298.803 159.5,297.5C 158.311,296.571 156.978,296.238 155.5,296.5C 155.232,291.792 152.898,288.625 148.5,287C 148.957,286.586 149.291,286.086 149.5,285.5C 148.846,283.885 148.346,282.218 148,280.5C 145.952,281.423 144.119,280.923 142.5,279C 134.833,278.667 127.167,278.333 119.5,278C 118.809,276.933 118.309,275.766 118,274.5C 117.586,274.957 117.086,275.291 116.5,275.5C 115.77,274.066 114.77,272.9 113.5,272C 116.001,270.582 115.668,269.582 112.5,269C 113.167,268.667 113.833,268.333 114.5,268C 113.376,267.751 112.376,267.251 111.5,266.5C 111.314,263.885 109.98,261.552 107.5,259.5C 106.833,259.833 106.167,260.167 105.5,260.5C 104.813,258.445 103.646,256.779 102,255.5C 101.333,254.833 101.333,254.167 102,253.5C 102.654,254.696 103.154,254.696 103.5,253.5C 102.194,252.088 101.36,250.421 101,248.5C 100,247.167 99,247.167 98,248.5C 96.887,247.24 96.7203,246.073 97.5,245C 96.5305,243.242 95.3639,242.742 94,243.5C 93.7265,241.671 92.8932,240.171 91.5,239C 91.8333,238.667 92.1667,238.333 92.5,238C 90.4088,236.274 88.0755,235.107 85.5,234.5C 85.8333,233.167 86.1667,231.833 86.5,230.5C 86.3284,229.508 86.6618,228.842 87.5,228.5C 89.0075,226.819 90.0075,224.819 90.5,222.5C 90.3284,221.508 90.6618,220.842 91.5,220.5C 92.6737,219.486 93.3404,218.153 93.5,216.5C 93.3284,215.508 93.6618,214.842 94.5,214.5C 96.0075,212.819 97.0075,210.819 97.5,208.5C 97.3284,207.508 97.6618,206.842 98.5,206.5C 100.008,204.819 101.008,202.819 101.5,200.5C 101.328,199.508 101.662,198.842 102.5,198.5C 103.674,197.486 104.34,196.153 104.5,194.5C 104.66,192.847 105.326,191.514 106.5,190.5C 107.674,189.486 108.34,188.153 108.5,186.5C 108.328,185.508 108.662,184.842 109.5,184.5C 111.008,182.819 112.008,180.819 112.5,178.5C 112.328,177.508 112.662,176.842 113.5,176.5C 114.674,175.486 115.34,174.153 115.5,172.5 Z"/></g>
<g><path style="opacity:0.129" fill="#141b18" d="M 214.5,190.5 C 214.573,192.027 213.906,193.027 212.5,193.5C 212.427,191.973 213.094,190.973 214.5,190.5 Z"/></g>
<g><path style="opacity:0.51" fill="#1f2827" d="M 104.5,194.5 C 104.34,196.153 103.674,197.486 102.5,198.5C 102.229,196.62 102.896,195.287 104.5,194.5 Z"/></g>
<g><path style="opacity:0.114" fill="#1c1c1c" d="M 336.5,194.5 C 336.771,196.38 336.104,197.713 334.5,198.5C 334.66,196.847 335.326,195.514 336.5,194.5 Z"/></g>
<g><path style="opacity:0.878" fill="#8c9f9e" d="M 210.5,196.5 C 236.984,198.164 263.651,199.164 290.5,199.5C 263.159,199.833 235.825,199.5 208.5,198.5C 208.855,197.478 209.522,196.811 210.5,196.5 Z"/></g>
<g><path style="opacity:0.137" fill="#242424" d="M 334.5,198.5 C 334.573,200.027 333.906,201.027 332.5,201.5C 332.427,199.973 333.094,198.973 334.5,198.5 Z"/></g>
<g><path style="opacity:0.141" fill="#1a2120" d="M 101.5,200.5 C 101.008,202.819 100.008,204.819 98.5,206.5C 98.461,203.911 99.461,201.911 101.5,200.5 Z"/></g>
<g><path style="opacity:0.247" fill="#393939" d="M 438.5,194.5 C 437.686,201.789 435.352,208.456 431.5,214.5C 433.845,207.756 436.179,201.089 438.5,194.5 Z"/></g>
<g><path style="opacity:0.082" fill="#1b2221" d="M 97.5,208.5 C 97.0075,210.819 96.0075,212.819 94.5,214.5C 94.461,211.911 95.461,209.911 97.5,208.5 Z"/></g>
<g><path style="opacity:0.404" fill="#373f3e" d="M 304.5,210.5 C 303.214,213.117 301.547,215.45 299.5,217.5C 299.969,214.357 301.636,212.023 304.5,210.5 Z"/></g>
<g><path style="opacity:1" fill="#5ba8a2" d="M 293.5,209.5 C 290.253,215.083 286.253,220.083 281.5,224.5C 281.5,223.167 281.5,221.833 281.5,220.5C 282.5,220.5 283.5,220.5 284.5,220.5C 284.714,218.856 284.38,217.356 283.5,216C 284,215.5 284.5,215 285,214.5C 286.011,215.337 287.178,215.67 288.5,215.5C 288.137,213.089 289.137,211.589 291.5,211C 291.167,210.667 290.833,210.333 290.5,210C 291.448,209.517 292.448,209.351 293.5,209.5 Z"/></g>
<g><path style="opacity:0.075" fill="#1c2321" d="M 93.5,216.5 C 93.3404,218.153 92.6737,219.486 91.5,220.5C 91.2291,218.62 91.8958,217.287 93.5,216.5 Z"/></g>
<g><path style="opacity:0.447" fill="#3a3f3e" d="M 296.5,220.5 C 295.516,222.48 294.183,224.147 292.5,225.5C 292.738,222.931 294.071,221.265 296.5,220.5 Z"/></g>
<g><path style="opacity:0.145" fill="#1b2321" d="M 90.5,222.5 C 90.0075,224.819 89.0075,226.819 87.5,228.5C 87.461,225.911 88.461,223.911 90.5,222.5 Z"/></g>
<g><path style="opacity:0.004" fill="#242827" d="M 280.5,225.5 C 280.573,227.027 279.906,228.027 278.5,228.5C 278.427,226.973 279.094,225.973 280.5,225.5 Z"/></g>
<g><path style="opacity:0.533" fill="#505657" d="M 292.5,225.5 C 292.144,227.19 291.144,228.19 289.5,228.5C 289.856,226.81 290.856,225.81 292.5,225.5 Z"/></g>
<g><path style="opacity:0.086" fill="#1b2221" d="M 86.5,230.5 C 86.1667,231.833 85.8333,233.167 85.5,234.5C 84.8333,235.167 84.1667,235.833 83.5,236.5C 83.461,233.911 84.461,231.911 86.5,230.5 Z"/></g>
<g><path style="opacity:1" fill="#539d96" d="M 272.5,235.5 C 272.938,235.435 273.272,235.601 273.5,236C 272.016,236.662 270.683,237.496 269.5,238.5C 269.082,237.778 268.416,237.278 267.5,237C 268.905,235.731 270.571,235.231 272.5,235.5 Z"/></g>
<g><path style="opacity:0.09" fill="#1c2423" d="M 82.5,238.5 C 82.3404,240.153 81.6737,241.486 80.5,242.5C 80.2291,240.62 80.8958,239.287 82.5,238.5 Z"/></g>
<g><path style="opacity:1" fill="#498e89" d="M 268.5,239.5 C 267.92,241.749 266.587,243.415 264.5,244.5C 264.5,243.167 264.5,241.833 264.5,240.5C 265.959,240.567 267.292,240.234 268.5,239.5 Z"/></g>
<g><path style="opacity:0.678" fill="#5c5c5c" d="M 418.5,244.5 C 420.262,245.262 421.262,246.596 421.5,248.5C 419.738,247.738 418.738,246.404 418.5,244.5 Z"/></g>
<g><path style="opacity:0.165" fill="#1c2422" d="M 79.5,244.5 C 79.0075,246.819 78.0075,248.819 76.5,250.5C 76.461,247.911 77.461,245.911 79.5,244.5 Z"/></g>
<g><path style="opacity:0.012" fill="#1d2120" d="M 264.5,244.5 C 264.262,246.404 263.262,247.738 261.5,248.5C 261.738,246.596 262.738,245.262 264.5,244.5 Z"/></g>
<g><path style="opacity:0.773" fill="#727272" d="M 421.5,248.5 C 422.906,248.973 423.573,249.973 423.5,251.5C 422.094,251.027 421.427,250.027 421.5,248.5 Z"/></g>
<g><path style="opacity:0.02" fill="#282929" d="M 260.5,249.5 C 260.5,250.833 259.833,251.5 258.5,251.5C 258.833,250.5 259.5,249.833 260.5,249.5 Z"/></g>
<g><path style="opacity:0.282" fill="#484c4b" d="M 280.5,239.5 C 277.871,244.789 274.204,249.123 269.5,252.5C 270.153,251.193 270.82,249.86 271.5,248.5C 274.279,245.273 277.279,242.273 280.5,239.5 Z"/></g>
<g><path style="opacity:0.482" fill="#6a6a6a" d="M 423.5,251.5 C 424.906,251.973 425.573,252.973 425.5,254.5C 424.094,254.027 423.427,253.027 423.5,251.5 Z"/></g>
<g><path style="opacity:0.094" fill="#1b2322" d="M 75.5,252.5 C 75.0075,254.819 74.0075,256.819 72.5,258.5C 72.461,255.911 73.461,253.911 75.5,252.5 Z"/></g>
<g><path style="opacity:0.094" fill="#1c2422" d="M 71.5,260.5 C 71.3404,262.153 70.6737,263.486 69.5,264.5C 69.2291,262.62 69.8958,261.287 71.5,260.5 Z"/></g>
<g><path style="opacity:1" fill="#509792" d="M 247.5,264.5 C 246.92,266.749 245.587,268.415 243.5,269.5C 242.756,266.05 244.09,264.384 247.5,264.5 Z"/></g>
<g><path style="opacity:0.18" fill="#242e2b" d="M 68.5,266.5 C 68.3404,268.153 67.6737,269.486 66.5,270.5C 66.2291,268.62 66.8958,267.287 68.5,266.5 Z"/></g>
<g><path style="opacity:0.071" fill="#242727" d="M 243.5,269.5 C 243.5,270.833 242.833,271.5 241.5,271.5C 241.833,270.5 242.5,269.833 243.5,269.5 Z"/></g>
<g><path style="opacity:0.624" fill="#465c59" d="M 254.5,270.5 C 253.396,272.389 252.063,274.055 250.5,275.5C 250.67,272.796 252.003,271.129 254.5,270.5 Z"/></g>
<g><path style="opacity:0.344" fill="#525252" d="M 430.5,266.5 C 432.04,271.065 432.707,275.898 432.5,281C 432.554,289.106 431.554,296.939 429.5,304.5C 431.516,291.87 431.849,279.204 430.5,266.5 Z"/></g>
<g><path style="opacity:0.031" fill="#191918" d="M 238.5,274.5 C 238.833,274.5 239.167,274.5 239.5,274.5C 239.5,275.833 238.833,276.5 237.5,276.5C 237.833,275.833 238.167,275.167 238.5,274.5 Z"/></g>
<g><path style="opacity:0.998" fill="#4b9e97" d="M 237.5,276.5 C 236.2,279.432 234.2,281.766 231.5,283.5C 231.5,282.167 231.5,280.833 231.5,279.5C 232.5,279.5 233.5,279.5 234.5,279.5C 234.5,278.5 234.5,277.5 234.5,276.5C 235.5,276.5 236.5,276.5 237.5,276.5 Z"/></g>
<g><path style="opacity:0.667" fill="#4a5d5a" d="M 250.5,275.5 C 249.075,276.922 248.075,278.589 247.5,280.5C 247.5,280.833 247.5,281.167 247.5,281.5C 245.809,278.336 246.809,276.336 250.5,275.5 Z"/></g>
<g><path style="opacity:0.384" fill="#2e514b" d="M 67.5,277.5 C 69.0269,277.427 70.0269,278.094 70.5,279.5C 68.9731,279.573 67.9731,278.906 67.5,277.5 Z"/></g>
<g><path style="opacity:0.094" fill="#0c1616" d="M 70.5,279.5 C 94.1667,279.5 117.833,279.5 141.5,279.5C 141.88,281.698 141.213,283.365 139.5,284.5C 139.539,283.417 139.873,282.417 140.5,281.5C 117.004,280.833 93.6702,280.167 70.5,279.5 Z"/></g>
<g><path style="opacity:0.702" fill="#aaaaaa" d="M 247.5,281.5 C 247.5,281.167 247.5,280.833 247.5,280.5C 269.503,280.333 291.503,280.5 313.5,281C 316.576,281.346 319.576,282.012 322.5,283C 323.056,283.383 323.389,283.883 323.5,284.5C 319.952,283.241 316.285,282.407 312.5,282C 290.836,281.5 269.169,281.333 247.5,281.5 Z"/></g>
<g><path style="opacity:0.196" fill="#2c3a37" d="M 231.5,283.5 C 231.262,285.404 230.262,286.738 228.5,287.5C 228.738,285.596 229.738,284.262 231.5,283.5 Z"/></g>
<g><path style="opacity:0.047" fill="#2b2b2b" d="M 323.5,284.5 C 325.048,284.821 325.715,285.821 325.5,287.5C 324.599,286.71 323.932,285.71 323.5,284.5 Z"/></g>
<g><path style="opacity:0.071" fill="#1f2524" d="M 227.5,288.5 C 226.92,290.749 225.587,292.415 223.5,293.5C 224.08,291.251 225.413,289.585 227.5,288.5 Z"/></g>
<g><path style="opacity:0.688" fill="#9e9e9e" d="M 241.5,289.5 C 241.229,296.407 240.229,303.074 238.5,309.5C 238.771,302.593 239.771,295.926 241.5,289.5 Z"/></g>
<g><path style="opacity:0.106" fill="#1d1e1e" d="M 137.5,289.5 C 137.204,291.403 136.537,293.07 135.5,294.5C 135.12,292.302 135.787,290.635 137.5,289.5 Z"/></g>
<g><path style="opacity:0.733" fill="#6e7272" d="M 241.5,289.5 C 241.631,288.761 241.464,288.094 241,287.5C 239.924,290.079 238.091,291.746 235.5,292.5C 237.279,290.454 238.946,288.287 240.5,286C 241.6,285.568 242.267,286.068 242.5,287.5C 242.457,288.416 242.124,289.083 241.5,289.5 Z"/></g>
<g><path style="opacity:0.018" fill="#333c3b" d="M 235.5,292.5 C 234.25,294.932 232.75,297.266 231,299.5C 230.329,300.252 229.496,300.586 228.5,300.5C 230.117,297.216 232.45,294.549 235.5,292.5 Z"/></g>
<g><path style="opacity:0.004" fill="#161919" d="M 222.5,294.5 C 222.262,296.404 221.262,297.738 219.5,298.5C 219.738,296.596 220.738,295.262 222.5,294.5 Z"/></g>
<g><path style="opacity:0.153" fill="#26302e" d="M 134.5,297.5 C 134.34,299.153 133.674,300.486 132.5,301.5C 132.062,301.565 131.728,301.399 131.5,301C 132.163,299.482 133.163,298.315 134.5,297.5 Z"/></g>
<g><path style="opacity:0.998" fill="#3c857f" d="M 218.5,299.5 C 217.674,301.264 216.341,302.598 214.5,303.5C 214.5,302.5 214.5,301.5 214.5,300.5C 215.959,300.567 217.292,300.234 218.5,299.5 Z"/></g>
<g><path style="opacity:0.004" fill="#141e1c" d="M 213.5,303.5 C 213.833,303.5 214.167,303.5 214.5,303.5C 214.715,305.179 214.048,306.179 212.5,306.5C 213.11,305.609 213.443,304.609 213.5,303.5 Z"/></g>
<g><path style="opacity:0.808" fill="#6f7573" d="M 227.5,302.5 C 227.167,304.833 225.833,306.167 223.5,306.5C 224.5,304.833 225.833,303.5 227.5,302.5 Z"/></g>
<g><path style="opacity:0.009" fill="#202a29" d="M 131.5,304.5 C 130.917,307.947 129.584,310.947 127.5,313.5C 127.343,312.127 127.51,310.793 128,309.5C 128.902,307.569 130.069,305.903 131.5,304.5 Z"/></g>
<g><path style="opacity:0.153" fill="#2b3635" d="M 209.5,309.5 C 209.573,311.027 208.906,312.027 207.5,312.5C 207.427,310.973 208.094,309.973 209.5,309.5 Z"/></g>
<g><path style="opacity:0.196" fill="#2e2e2e" d="M 325.5,287.5 C 326.931,287.881 327.764,288.881 328,290.5C 329.08,300.476 328.246,310.143 325.5,319.5C 326.447,312.869 327.114,306.202 327.5,299.5C 327.66,295.31 326.993,291.31 325.5,287.5 Z"/></g>
<g><path style="opacity:0.086" fill="#212525" d="M 205.5,314.5 C 205.573,316.027 204.906,317.027 203.5,317.5C 203.427,315.973 204.094,314.973 205.5,314.5 Z"/></g>
<g><path style="opacity:0.102" fill="#131919" d="M 126.5,315.5 C 126.771,317.38 126.104,318.713 124.5,319.5C 124.66,317.847 125.326,316.514 126.5,315.5 Z"/></g>
<g><path style="opacity:1" fill="#3ffded" d="M 85.5,234.5 C 88.0755,235.107 90.4088,236.274 92.5,238C 92.1667,238.333 91.8333,238.667 91.5,239C 92.8932,240.171 93.7265,241.671 94,243.5C 95.3639,242.742 96.5305,243.242 97.5,245C 96.7203,246.073 96.887,247.24 98,248.5C 99,247.167 100,247.167 101,248.5C 101.36,250.421 102.194,252.088 103.5,253.5C 103.154,254.696 102.654,254.696 102,253.5C 101.333,254.167 101.333,254.833 102,255.5C 103.646,256.779 104.813,258.445 105.5,260.5C 106.167,260.167 106.833,259.833 107.5,259.5C 109.98,261.552 111.314,263.885 111.5,266.5C 112.376,267.251 113.376,267.751 114.5,268C 113.833,268.333 113.167,268.667 112.5,269C 115.668,269.582 116.001,270.582 113.5,272C 114.77,272.9 115.77,274.066 116.5,275.5C 117.086,275.291 117.586,274.957 118,274.5C 118.309,275.766 118.809,276.933 119.5,278C 127.167,278.333 134.833,278.667 142.5,279C 144.119,280.923 145.952,281.423 148,280.5C 148.346,282.218 148.846,283.885 149.5,285.5C 149.291,286.086 148.957,286.586 148.5,287C 152.898,288.625 155.232,291.792 155.5,296.5C 156.978,296.238 158.311,296.571 159.5,297.5C 158.282,298.803 158.615,299.803 160.5,300.5C 159.572,301.768 159.405,303.101 160,304.5C 161.049,303.483 162.216,303.316 163.5,304C 162.833,304.333 162.167,304.667 161.5,305C 162.191,306.067 162.691,307.234 163,308.5C 164.833,308.333 166.667,308.167 168.5,308C 167.833,308.667 167.167,309.333 166.5,310C 167.584,312.825 168.751,312.992 170,310.5C 170.273,312.329 171.107,313.829 172.5,315C 171.011,318.666 172.345,320.666 176.5,321C 176.043,321.414 175.709,321.914 175.5,322.5C 177.027,324.193 178.36,326.027 179.5,328C 179.167,328.333 178.833,328.667 178.5,329C 181.106,329.45 182.439,330.95 182.5,333.5C 183.5,333.5 184.5,333.5 185.5,333.5C 185.5,335.167 185.5,336.833 185.5,338.5C 183.413,339.585 182.08,341.251 181.5,343.5C 181.5,344.167 181.167,344.5 180.5,344.5C 178.086,345.911 176.419,347.911 175.5,350.5C 175.167,351.5 174.5,352.167 173.5,352.5C 171.413,353.585 170.08,355.251 169.5,357.5C 169.5,358.167 169.167,358.5 168.5,358.5C 166.738,359.262 165.738,360.596 165.5,362.5C 165.5,363.167 165.167,363.5 164.5,363.5C 162.413,364.585 161.08,366.251 160.5,368.5C 157.139,370.895 154.472,373.895 152.5,377.5C 151.094,377.973 150.427,378.973 150.5,380.5C 149.167,380.5 147.833,380.5 146.5,380.5C 146.5,381.5 146.5,382.5 146.5,383.5C 145.4,384.605 144.733,385.938 144.5,387.5C 144.5,388.167 144.167,388.5 143.5,388.5C 141.413,389.585 140.08,391.251 139.5,393.5C 137.167,395.5 134.833,397.5 132.5,399.5C 132.423,398.25 131.756,397.417 130.5,397C 131.793,396.51 133.127,396.343 134.5,396.5C 134.587,393.402 134.087,393.068 133,395.5C 131.667,394.167 130.333,392.833 129,391.5C 128.086,395.185 127.419,394.852 127,390.5C 125.745,389.789 124.579,388.956 123.5,388C 123.616,386.732 123.949,385.398 124.5,384C 120.5,383.333 120.5,382.667 124.5,382C 123.747,380.513 122.914,380.346 122,381.5C 121.5,380.5 121,379.5 120.5,378.5C 121.165,376.899 121.499,375.399 121.5,374C 120.234,373.691 119.067,373.191 118,372.5C 117.396,374.686 116.23,374.852 114.5,373C 115.451,372.282 115.617,371.449 115,370.5C 113.667,369.833 112.667,368.833 112,367.5C 111.195,369.901 110.362,369.734 109.5,367C 110.167,366.667 110.833,366.333 111.5,366C 110.264,364.915 108.931,364.082 107.5,363.5C 107.878,361.079 108.545,358.746 109.5,356.5C 109.5,356.167 109.5,355.833 109.5,355.5C 110.674,354.486 111.34,353.153 111.5,351.5C 111.604,349.297 112.27,347.297 113.5,345.5C 115.539,344.089 116.539,342.089 116.5,339.5C 117.537,338.07 118.204,336.403 118.5,334.5C 120.213,333.365 120.88,331.698 120.5,329.5C 121.931,328.097 123.098,326.431 124,324.5C 124.49,323.207 124.657,321.873 124.5,320.5C 124.5,320.167 124.5,319.833 124.5,319.5C 126.104,318.713 126.771,317.38 126.5,315.5C 126.328,314.508 126.662,313.842 127.5,313.5C 129.584,310.947 130.917,307.947 131.5,304.5C 131.557,303.391 131.89,302.391 132.5,301.5C 133.674,300.486 134.34,299.153 134.5,297.5C 134.263,296.209 134.596,295.209 135.5,294.5C 136.537,293.07 137.204,291.403 137.5,289.5C 137.893,287.716 138.559,286.05 139.5,284.5C 141.213,283.365 141.88,281.698 141.5,279.5C 117.833,279.5 94.1667,279.5 70.5,279.5C 70.0269,278.094 69.0269,277.427 67.5,277.5C 66.5318,275.393 66.1984,273.059 66.5,270.5C 67.6737,269.486 68.3404,268.153 68.5,266.5C 68.3284,265.508 68.6618,264.842 69.5,264.5C 70.6737,263.486 71.3404,262.153 71.5,260.5C 71.3284,259.508 71.6618,258.842 72.5,258.5C 74.0075,256.819 75.0075,254.819 75.5,252.5C 75.3284,251.508 75.6618,250.842 76.5,250.5C 78.0075,248.819 79.0075,246.819 79.5,244.5C 79.3284,243.508 79.6618,242.842 80.5,242.5C 81.6737,241.486 82.3404,240.153 82.5,238.5C 82.3284,237.508 82.6618,236.842 83.5,236.5C 84.1667,235.833 84.8333,235.167 85.5,234.5 Z"/></g>
<g><path style="opacity:0.384" fill="#434442" d="M 215.5,316.5 C 215.5,318.5 214.5,319.5 212.5,319.5C 213.167,318.167 214.167,317.167 215.5,316.5 Z"/></g>
<g><path style="opacity:0.5" fill="#737373" d="M 428.5,311.5 C 427.802,320.394 426.469,329.061 424.5,337.5C 425.011,328.577 426.345,319.911 428.5,311.5 Z"/></g>
<g><path style="opacity:0.004" fill="#161717" d="M 201.5,319.5 C 201.262,321.404 200.262,322.738 198.5,323.5C 198.738,321.596 199.738,320.262 201.5,319.5 Z"/></g>
<g><path style="opacity:0.231" fill="#25423e" d="M 124.5,320.5 C 124.657,321.873 124.49,323.207 124,324.5C 123.098,326.431 121.931,328.097 120.5,329.5C 121.042,326.088 122.375,323.088 124.5,320.5 Z"/></g>
<g><path style="opacity:0.004" fill="#0f1312" d="M 198.5,323.5 C 197.581,326.089 195.914,328.089 193.5,329.5C 194.419,326.911 196.086,324.911 198.5,323.5 Z"/></g>
<g><path style="opacity:1" fill="#7f8c8b" d="M 211.5,321.5 C 210.774,324.288 209.107,326.288 206.5,327.5C 207.419,324.911 209.086,322.911 211.5,321.5 Z"/></g>
<g><path style="opacity:0.78" fill="#38605c" d="M 120.5,329.5 C 120.88,331.698 120.213,333.365 118.5,334.5C 118.796,332.597 119.463,330.93 120.5,329.5 Z"/></g>
<g><path style="opacity:0.125" fill="#343736" d="M 203.5,330.5 C 203.573,332.027 202.906,333.027 201.5,333.5C 201.427,331.973 202.094,330.973 203.5,330.5 Z"/></g>
<g><path style="opacity:0.741" fill="#757575" d="M 320.5,331.5 C 320.167,333.833 318.833,335.167 316.5,335.5C 317.5,333.833 318.833,332.5 320.5,331.5 Z"/></g>
<g><path style="opacity:0.025" fill="#1a1d1c" d="M 118.5,334.5 C 118.204,336.403 117.537,338.07 116.5,339.5C 116.12,337.302 116.787,335.635 118.5,334.5 Z"/></g>
<g><path style="opacity:0.059" fill="#1e2424" d="M 189.5,333.5 C 189.262,335.404 188.262,336.738 186.5,337.5C 186.738,335.596 187.738,334.262 189.5,333.5 Z"/></g>
<g><path style="opacity:0.894" fill="#999999" d="M 200.5,334.5 C 200.33,337.204 198.997,338.871 196.5,339.5C 197.604,337.611 198.937,335.945 200.5,334.5 Z"/></g>
<g><path style="opacity:0.169" fill="#2b2b2b" d="M 235.5,336.5 C 260.353,337.204 285.353,337.871 310.5,338.5C 297.2,338.886 283.7,338.886 270,338.5C 258.167,338.167 246.333,337.833 234.5,337.5C 234.624,336.893 234.957,336.56 235.5,336.5 Z"/></g>
<g><path style="opacity:0.206" fill="#252525" d="M 314.5,336.5 C 313.713,338.104 312.38,338.771 310.5,338.5C 311.514,337.326 312.847,336.66 314.5,336.5 Z"/></g>
<g><path style="opacity:0.004" fill="#181b1a" d="M 185.5,338.5 C 184.92,340.749 183.587,342.415 181.5,343.5C 182.08,341.251 183.413,339.585 185.5,338.5 Z"/></g>
<g><path style="opacity:0.192" fill="#1e2a27" d="M 116.5,339.5 C 116.539,342.089 115.539,344.089 113.5,345.5C 113.992,343.181 114.992,341.181 116.5,339.5 Z"/></g>
<g><path style="opacity:0.004" fill="#15201f" d="M 180.5,344.5 C 179.581,347.089 177.914,349.089 175.5,350.5C 176.419,347.911 178.086,345.911 180.5,344.5 Z"/></g>
<g><path style="opacity:0.337" fill="#182421" d="M 111.5,351.5 C 111.34,353.153 110.674,354.486 109.5,355.5C 109.229,353.62 109.896,352.287 111.5,351.5 Z"/></g>
<g><path style="opacity:0.227" fill="#262928" d="M 190.5,346.5 C 182.963,356.246 174.963,365.579 166.5,374.5C 173.476,366.015 180.31,357.348 187,348.5C 187.816,347.177 188.983,346.511 190.5,346.5 Z"/></g>
<g><path style="opacity:0.598" fill="#8a8a8a" d="M 423.5,344.5 C 422.895,353.74 421.562,362.74 419.5,371.5C 420.105,362.26 421.438,353.26 423.5,344.5 Z"/></g>
<g><path style="opacity:0.169" fill="#293733" d="M 173.5,352.5 C 172.92,354.749 171.587,356.415 169.5,357.5C 170.08,355.251 171.413,353.585 173.5,352.5 Z"/></g>
<g><path style="opacity:0.169" fill="#1d2322" d="M 109.5,356.5 C 108.545,358.746 107.878,361.079 107.5,363.5C 107.167,363.5 106.833,363.5 106.5,363.5C 106.166,360.509 107.166,358.176 109.5,356.5 Z"/></g>
<g><path style="opacity:0.055" fill="#181e1d" d="M 168.5,358.5 C 168.262,360.404 167.262,361.738 165.5,362.5C 165.738,360.596 166.738,359.262 168.5,358.5 Z"/></g>
<g><path style="opacity:0.008" fill="#161817" d="M 164.5,363.5 C 163.92,365.749 162.587,367.415 160.5,368.5C 161.08,366.251 162.413,364.585 164.5,363.5 Z"/></g>
<g><path style="opacity:0.224" fill="#192723" d="M 105.5,365.5 C 105.771,367.38 105.104,368.713 103.5,369.5C 103.66,367.847 104.326,366.514 105.5,365.5 Z"/></g>
<g><path style="opacity:0.004" fill="#101412" d="M 160.5,368.5 C 159.25,370.932 157.75,373.266 156,375.5C 155.184,376.823 154.017,377.489 152.5,377.5C 154.472,373.895 157.139,370.895 160.5,368.5 Z"/></g>
<g><path style="opacity:0.388" fill="#233330" d="M 101.5,374.5 C 101.818,377.481 100.818,379.815 98.5,381.5C 99.0883,378.937 100.088,376.604 101.5,374.5 Z"/></g>
<g><path style="opacity:0.004" fill="#0b1817" d="M 152.5,377.5 C 152.573,379.027 151.906,380.027 150.5,380.5C 150.427,378.973 151.094,377.973 152.5,377.5 Z"/></g>
<g><path style="opacity:0.333" fill="#343636" d="M 166.5,374.5 C 165.581,377.089 163.914,379.089 161.5,380.5C 162.419,377.911 164.086,375.911 166.5,374.5 Z"/></g>
<g><path style="opacity:0.998" fill="#32948d" d="M 150.5,380.5 C 149.833,381.833 148.833,382.833 147.5,383.5C 147.167,383.5 146.833,383.5 146.5,383.5C 146.5,382.5 146.5,381.5 146.5,380.5C 147.833,380.5 149.167,380.5 150.5,380.5 Z"/></g>
<g><path style="opacity:0.078" fill="#191d1c" d="M 146.5,383.5 C 146.833,383.5 147.167,383.5 147.5,383.5C 147.262,385.404 146.262,386.738 144.5,387.5C 144.733,385.938 145.4,384.605 146.5,383.5 Z"/></g>
<g><path style="opacity:0.149" fill="#1e2623" d="M 98.5,382.5 C 98.1039,385.721 96.7705,388.388 94.5,390.5C 95.2794,387.455 96.6127,384.789 98.5,382.5 Z"/></g>
<g><path style="opacity:0.004" fill="#171b19" d="M 143.5,388.5 C 142.92,390.749 141.587,392.415 139.5,393.5C 140.08,391.251 141.413,389.585 143.5,388.5 Z"/></g>
<g><path style="opacity:0.361" fill="#323736" d="M 161.5,380.5 C 152.911,392.093 143.577,403.093 133.5,413.5C 142.089,401.907 151.423,390.907 161.5,380.5 Z"/></g>
<g><path style="opacity:0.349" fill="#1d332f" d="M 94.5,391.5 C 94.5979,393.553 93.9313,395.22 92.5,396.5C 92.4021,394.447 93.0687,392.78 94.5,391.5 Z"/></g>
<g><path style="opacity:0.004" fill="#131d1b" d="M 139.5,393.5 C 137.57,397.1 134.903,400.1 131.5,402.5C 131.557,401.391 131.89,400.391 132.5,399.5C 134.833,397.5 137.167,395.5 139.5,393.5 Z"/></g>
<g><path style="opacity:0.071" fill="#212928" d="M 131.5,402.5 C 130.92,404.749 129.587,406.415 127.5,407.5C 128.08,405.251 129.413,403.585 131.5,402.5 Z"/></g>
<g><path style="opacity:0.106" fill="#1a2221" d="M 90.5,400.5 C 89.4493,405.677 87.4493,410.343 84.5,414.5C 85.9346,409.51 87.9346,404.844 90.5,400.5 Z"/></g>
<g><path style="opacity:0.012" fill="#171a18" d="M 126.5,408.5 C 125.92,410.749 124.587,412.415 122.5,413.5C 123.08,411.251 124.413,409.585 126.5,408.5 Z"/></g>
<g><path style="opacity:0.475" fill="#485252" d="M 133.5,413.5 C 132.588,415.595 131.421,417.595 130,419.5C 129.329,420.252 128.496,420.586 127.5,420.5C 128.8,417.568 130.8,415.234 133.5,413.5 Z"/></g>
<g><path style="opacity:0.004" fill="#121a19" d="M 122.5,413.5 C 119.435,418.961 115.435,423.628 110.5,427.5C 114.029,422.452 118.029,417.785 122.5,413.5 Z"/></g>
<g><path style="opacity:0.384" fill="#1b2725" d="M 82.5,419.5 C 82.9754,422.313 81.9754,424.313 79.5,425.5C 80.5082,423.456 81.5082,421.456 82.5,419.5 Z"/></g>
<g><path style="opacity:0.224" fill="#1c2423" d="M 79.5,426.5 C 79.3076,430.102 77.9743,433.102 75.5,435.5C 76.4629,432.256 77.7962,429.256 79.5,426.5 Z"/></g>
<g><path style="opacity:0.094" fill="#1c221f" d="M 110.5,427.5 C 109.92,429.749 108.587,431.415 106.5,432.5C 107.08,430.251 108.413,428.585 110.5,427.5 Z"/></g>
<g><path style="opacity:1" fill="#26f9e7" d="M 106.5,363.5 C 106.833,363.5 107.167,363.5 107.5,363.5C 108.931,364.082 110.264,364.915 111.5,366C 110.833,366.333 110.167,366.667 109.5,367C 110.362,369.734 111.195,369.901 112,367.5C 112.667,368.833 113.667,369.833 115,370.5C 115.617,371.449 115.451,372.282 114.5,373C 116.23,374.852 117.396,374.686 118,372.5C 119.067,373.191 120.234,373.691 121.5,374C 121.499,375.399 121.165,376.899 120.5,378.5C 121,379.5 121.5,380.5 122,381.5C 122.914,380.346 123.747,380.513 124.5,382C 120.5,382.667 120.5,383.333 124.5,384C 123.949,385.398 123.616,386.732 123.5,388C 124.579,388.956 125.745,389.789 127,390.5C 127.419,394.852 128.086,395.185 129,391.5C 130.333,392.833 131.667,394.167 133,395.5C 134.087,393.068 134.587,393.402 134.5,396.5C 133.127,396.343 131.793,396.51 130.5,397C 131.756,397.417 132.423,398.25 132.5,399.5C 131.89,400.391 131.557,401.391 131.5,402.5C 129.413,403.585 128.08,405.251 127.5,407.5C 127.5,408.167 127.167,408.5 126.5,408.5C 124.413,409.585 123.08,411.251 122.5,413.5C 118.029,417.785 114.029,422.452 110.5,427.5C 108.413,428.585 107.08,430.251 106.5,432.5C 106.5,433.167 106.167,433.5 105.5,433.5C 103.738,434.262 102.738,435.596 102.5,437.5C 102.5,438.167 102.167,438.5 101.5,438.5C 97.2157,441.752 93.8824,445.752 91.5,450.5C 91.1667,451.5 90.5,452.167 89.5,452.5C 87.4131,453.585 86.0798,455.251 85.5,457.5C 85.5,458.167 85.1667,458.5 84.5,458.5C 81.052,461.966 77.3853,464.966 73.5,467.5C 72.8333,467.5 72.1667,467.5 71.5,467.5C 70.4863,466.326 69.153,465.66 67.5,465.5C 66.5318,463.393 66.1984,461.059 66.5,458.5C 68.3459,455.46 69.6792,452.127 70.5,448.5C 72.2132,447.365 72.8799,445.698 72.5,443.5C 72.9402,440.62 73.9402,437.954 75.5,435.5C 77.9743,433.102 79.3076,430.102 79.5,426.5C 79.5,426.167 79.5,425.833 79.5,425.5C 81.9754,424.313 82.9754,422.313 82.5,419.5C 82.7959,417.597 83.4625,415.93 84.5,414.5C 87.4493,410.343 89.4493,405.677 90.5,400.5C 90.6596,398.847 91.3263,397.514 92.5,396.5C 93.9313,395.22 94.5979,393.553 94.5,391.5C 94.5,391.167 94.5,390.833 94.5,390.5C 96.7705,388.388 98.1039,385.721 98.5,382.5C 98.5,382.167 98.5,381.833 98.5,381.5C 100.818,379.815 101.818,377.481 101.5,374.5C 101.796,372.597 102.463,370.93 103.5,369.5C 105.104,368.713 105.771,367.38 105.5,365.5C 105.328,364.508 105.662,363.842 106.5,363.5 Z"/></g>
<g><path style="opacity:0.008" fill="#141515" d="M 105.5,433.5 C 105.262,435.404 104.262,436.738 102.5,437.5C 102.738,435.596 103.738,434.262 105.5,433.5 Z"/></g>
<g><path style="opacity:0.784" fill="#2b554f" d="M 72.5,443.5 C 72.8799,445.698 72.2132,447.365 70.5,448.5C 70.4021,446.447 71.0687,444.78 72.5,443.5 Z"/></g>
<g><path style="opacity:0.004" fill="#091312" d="M 101.5,438.5 C 98.6409,442.878 95.3075,446.878 91.5,450.5C 93.8824,445.752 97.2157,441.752 101.5,438.5 Z"/></g>
<g><path style="opacity:0.22" fill="#1e2421" d="M 70.5,448.5 C 69.6792,452.127 68.3459,455.46 66.5,458.5C 66.7701,454.642 68.1034,451.309 70.5,448.5 Z"/></g>
<g><path style="opacity:0.067" fill="#181a1a" d="M 89.5,452.5 C 88.9202,454.749 87.5869,456.415 85.5,457.5C 86.0798,455.251 87.4131,453.585 89.5,452.5 Z"/></g>
<g><path style="opacity:0.224" fill="#233330" d="M 84.5,458.5 C 83.0812,461.1 81.4146,463.6 79.5,466C 77.6547,467.128 75.6547,467.628 73.5,467.5C 77.3853,464.966 81.052,461.966 84.5,458.5 Z"/></g>
<g><path style="opacity:0.29" fill="#39534e" d="M 67.5,465.5 C 69.153,465.66 70.4863,466.326 71.5,467.5C 69.6203,467.771 68.287,467.104 67.5,465.5 Z"/></g>
</svg>
